<svg width="14" height="14" viewBox="0 0 14 14" fill="none" xmlns="http://www.w3.org/2000/svg">
<path d="M12.3608 0.444637H8.90792C8.88319 0.195108 8.6726 0 8.41639 0H5.58361C5.32737 0 5.11682 0.195108 5.0921 0.444637H1.63918C1.36627 0.444637 1.14508 0.665824 1.14508 0.938801V1.87753C1.14508 2.15053 1.36627 2.37165 1.63918 2.37165H12.3609C12.6338 2.37165 12.855 2.15051 12.855 1.87753V0.938824C12.8549 0.665824 12.6337 0.444637 12.3608 0.444637Z" fill="#E46F6F" />
<path d="M2.18091 3.32082V13.5059C2.18091 13.7786 2.40209 14 2.675 14H11.325C11.598 14 11.819 13.7787 11.819 13.5059V3.32082H2.18091ZM5.79833 10.9653C5.79833 11.2661 5.55443 11.5101 5.25366 11.5101C4.95272 11.5101 4.70898 11.2661 4.70898 10.9653V5.56507C4.70898 5.26428 4.95272 5.0204 5.25366 5.0204C5.55443 5.0204 5.79833 5.2643 5.79833 5.56507V10.9653ZM9.2911 10.9653C9.2911 11.2661 9.0472 11.5101 8.74634 11.5101C8.44547 11.5101 8.20166 11.2661 8.20166 10.9653V5.56507C8.20166 5.26428 8.4455 5.0204 8.74634 5.0204C9.04718 5.0204 9.2911 5.2643 9.2911 5.56507V10.9653Z" fill="#E46F6F"/>
</svg>
